# xmcd
#
# Track frame offsets: 
#        182
#        6707
#        9482
#        29327
#        31082
#        34197
#        69182
#        94832
#        101705
#        103110
#        119207
#        122862
#
# Disc length: 1974 seconds
#
# Revision: 6
# Processed by: cddbd v1.5.2PL0 Copyright (c) Steve Scherf et al.
# Submitted via: ExactAudioCopy v1.0b1
#
DISCID=a107b40c
DTITLE=Various Artist - Venezianische Vesper (McCreesh, Gabrieli Consort and Pl
DTITLE=ayers) - CD 2
DYEAR=1990
DGENRE=Alte Musik
TTITLE0=Anonoymus - Organ - Praeambulum
TTITLE1=Anonoymus - Chapter - Ecce virgo
TTITLE2=Monteverdi ,Claudio - Hymn - Deus qui mundum crimine iacentem
TTITLE3=Monteverdi ,Claudio - Versicle and Response - Ave Maria
TTITLE4=Monteverdi ,Claudio - Antiphon - Spiritus Sanctus
TTITLE5=Rigatti, Giovanni Antonio - Magnificat
TTITLE6=Marini, Biagio - Sonata con tre violini in eco
TTITLE7=Marini, Biagio - Collect - Dominus vobiscum
TTITLE8=Marini, Biagio - Dismissal - Benedicamus Domino
TTITLE9=Monteverdi ,Claudio - Motet - Laudate Dominum
TTITLE10=Fasolo, Giovanni Battista - Organ - Intonazione
TTITLE11=Rigatti, Giovanni Antonio - Motet - Salve regina
EXTD=Archiv Produktion 437 552-2
EXTT0=Timothy Roberts, organ
EXTT1=
EXTT2=Charles Pott, baritone
EXTT3=
EXTT4=
EXTT5=
EXTT6=
EXTT7=
EXTT8=
EXTT9=Angus Smith, tenor\nPaula Chateauneuf, chitarrone\nTimothy Rober
EXTT9=ts, organ
EXTT10=
EXTT11=Charles Daniel, tenor\nPeter Harvey, baritone\nPaula Chateauneu
EXTT11=f, chitarroni\nCelia Harper, double harp
PLAYORDER=
